<svg xmlns="http://www.w3.org/2000/svg" width="65" height="66"><path fill-rule="evenodd" fill="#F99406" d="M43 44c.337 0 .664-.035.997-.05 0 .017.003.033.003.05 0 12.15-9.85 22-22 22S0 56.15 0 44c0-11.814 9.32-21.424 21.003-21.95 0 .334.032.66.05.99C21.035 22.69 21 22.35 21 22 21 9.85 30.85 0 43 0s22 9.85 22 22-9.85 22-22 22zM2 44c0 11.046 8.954 20 20 20s20-8.954 20-20c0-.017-.003-.034-.003-.05C31 43.45 22.107 34.904 21.103 24.044 10.477 24.518 2 33.257 2 44zM43 2c-11.046 0-20 8.954-20 20s8.954 20 20 20 20-8.954 20-20S54.046 2 43 2zm.488 19.108c1.545.517 2.69 1.12 3.437 1.805.746.687 1.12 1.656 1.12 2.91 0 1.244-.39 2.24-1.165 2.985-.776.747-1.824 1.172-3.144 1.277v2.138h-1.148v-2.126c-1.357-.09-2.482-.525-3.375-1.305-.892-.78-1.324-1.962-1.294-3.544l.033-.068h1.25c0 1.328.38 2.284 1.14 2.87.762.584 1.68.877 2.75.877 1.104 0 1.98-.29 2.628-.872.65-.58.974-1.318.974-2.21 0-.833-.27-1.512-.81-2.037-.54-.525-1.492-1.028-2.857-1.508-1.56-.495-2.715-1.09-3.465-1.788s-1.125-1.68-1.125-2.948c0-1.215.375-2.205 1.125-2.97.75-.765 1.77-1.2 3.06-1.305v-2.273h1.147v2.272c1.312.12 2.33.61 3.054 1.473.724.862 1.078 2.03 1.063 3.5l-.034.055h-1.26c0-1.14-.302-2.066-.905-2.78-.604-.71-1.442-1.068-2.515-1.068-1.11 0-1.952.29-2.525.872-.574.582-.86 1.315-.86 2.2 0 .855.254 1.543.764 2.064.51.52 1.49 1.022 2.936 1.502zm-20.8 21.76c1.545.517 2.69 1.12 3.437 1.805.746.687 1.12 1.656 1.12 2.91 0 1.244-.39 2.24-1.165 2.985-.776.747-1.824 1.172-3.144 1.277v2.138h-1.148v-2.126c-1.357-.09-2.482-.525-3.375-1.305-.892-.78-1.324-1.962-1.294-3.544l.033-.068h1.25c0 1.328.38 2.284 1.14 2.87.762.584 1.68.877 2.75.877 1.104 0 1.98-.29 2.628-.872.65-.58.974-1.318.974-2.21 0-.833-.27-1.512-.81-2.037-.54-.525-1.492-1.028-2.857-1.508-1.56-.495-2.715-1.09-3.465-1.788s-1.125-1.68-1.125-2.948c0-1.215.375-2.205 1.125-2.97.75-.765 1.77-1.2 3.06-1.305v-2.273h1.147v2.272c1.312.12 2.33.61 3.054 1.473.724.862 1.078 2.03 1.063 3.5l-.034.055h-1.26c0-1.14-.302-2.066-.905-2.78-.604-.71-1.442-1.068-2.515-1.068-1.11 0-1.952.29-2.525.872-.574.582-.86 1.315-.86 2.2 0 .855.254 1.543.764 2.064.51.52 1.49 1.022 2.936 1.502z"/></svg>