<svg xmlns="http://www.w3.org/2000/svg" width="118" height="74"><path stroke="#F99406" stroke-width="2" fill="none" d="M103.375 59.22v-1.564H116v1.563h-12.625zM93.33 22.85l8.946-9.06 1.085 1.1-8.946 9.057-1.085-1.098zM60.5 72c-6.973 0-12.625-5.73-12.625-12.797 0-1.487.263-2.91.723-4.236L42.03 38.29l15.062 8.6a12.456 12.456 0 0 1 3.408-.484c6.973 0 12.625 5.73 12.625 12.797C73.125 66.27 67.473 72 60.5 72zM56.187 1h1.532v12.78h-1.533V1zM13.64 14.89l1.083-1.1 8.948 9.06-1.084 1.097-8.947-9.058zM1 57.655h12.625v1.563H1v-1.564z"/></svg>